<?xml version="1.0" encoding="UTF-8" standalone="no"?>
<svg
   xmlns:dc="http://purl.org/dc/elements/1.1/"
   xmlns:cc="http://creativecommons.org/ns#"
   xmlns:rdf="http://www.w3.org/1999/02/22-rdf-syntax-ns#"
   xmlns:svg="http://www.w3.org/2000/svg"
   xmlns="http://www.w3.org/2000/svg"
   id="svg243"
   version="1.1"
   viewBox="0 0 315.952 262.83"
   height="262.83"
   width="315.952">
  <metadata
     id="metadata247">
    <rdf:RDF>
      <cc:Work
         rdf:about="">
        <dc:format>image/svg+xml</dc:format>
        <dc:type
           rdf:resource="http://purl.org/dc/dcmitype/StillImage" />
      </cc:Work>
    </rdf:RDF>
  </metadata>
  <defs
     id="defs19">
    <style
       id="style2">.a{fill:none;}.b{clip-path:url(#a);}.c{fill:#e0eaed;}.d{fill:#f3f6f9;}.e{fill:#a1ccb8;}.f{clip-path:url(#b);}.g{fill:#e5f4eb;}.h{fill:#008890;}.i{clip-path:url(#d);}.j{fill:#83c0b1;}.k{clip-path:url(#f);}.l{clip-path:url(#h);}.m{fill:#009061;}.n{fill:#5cb097;}.o{fill:#eaeaea;}.p{fill:#0b2d4e;}.q{fill:#9f6349;}.r{fill:#22a3cb;}.s{fill:#50b1d0;}.t{fill:#6d4d42;}.u{fill:#b8d1ce;}.v{fill:#d5eff7;}.w{fill:#fcb32b;}.x{fill:#fff;}.y{fill:#73b8d4;}</style>
    <clipPath
       id="a">
      <rect
         id="rect4"
         height="262.83"
         width="315.873"
         class="a" />
    </clipPath>
    <clipPath
       id="b">
      <path
         id="path7"
         transform="translate(-231.603 -210)"
         d="M306.857,210.395l-4.264,9.239V210.79c-2.29.237-4.264.553-6.081.869-25.428,5.054-57.094,18.242-64.438,45.96-2.211,8.213,3.712,6.791,10.424,5.37a35.3,35.3,0,0,1,8.213-1.106l36.167,1.106a174.91,174.91,0,0,0,17.136-9.239L295.8,246.72l13.5,3.712c23.3-15,43.748-33.4,55.357-39.168h0c-2.132-.158-20.295-1.263-38.3-1.263-6.791,0-13.583.158-19.505.553"
         class="a" />
    </clipPath>
    <clipPath
       id="d">
      <path
         id="path10"
         transform="translate(-236.011 -142.2)"
         d="M316.313,142.911c-4.659,1.421-8.529,4.659-12.161,7.9a15.793,15.793,0,0,1-4.738,3.4,5.062,5.062,0,0,1-5.449-.869c-1.342-1.421-1.342-3.08-2.527-4.264a4.659,4.659,0,0,0-4.422-.948c-7.186,1.737-9.555,11.45-13.267,16.9a3.633,3.633,0,0,1-2.606,1.737c-3,.237-3.948-4.106-6.712-4.58-4.106-.711-7.265,5.133-8.608,8.134s-2.606,10.108-6.081,13.267c-1.974,1.816-3.159.237-4.975-.553s-4.106.158-5.449,1.658a12.161,12.161,0,0,0-2.29,5.528,51.092,51.092,0,0,0-.079,19.9,16.783,16.783,0,0,0,2.843,7.186c5.054,6.4,16.5,5.133,23.611,4.5a18.114,18.114,0,0,0,8.608-2.448c2.527-1.658,4.5-4.5,4.264-7.5-.079-1.5-.79-3.08-.395-4.5s3.475-3.4,5.923-3.948l6.791-1.579c2.29-.553,4.659-1.106,6.475-2.606s2.843-4.185,1.658-6.238-3.554-2.843-3.633-4.975,2.132-3.238,4.106-3.712,5.37-.553,8.055-.869a12.671,12.671,0,0,0,7.423-3c1.974-1.9,2.843-5.054,1.421-7.344s-1.9-1.9-2.843-2.843c-4.9-5.054,5.607-8.45,9-9.634s7.66-3.159,9.16-6.791c3.159-7.5-2.685-11.608-9-11.608a14.609,14.609,0,0,0-4.343.632"
         class="a" />
    </clipPath>
    <clipPath
       id="f">
      <path
         id="path13"
         transform="translate(-92.7 -79.7)"
         d="M108.652,145.954l12.714,6.16h-10.9c6.16,19.505,14.846,37.9,28.429,48.96,6.712,5.449,17.926,12.477,23.3,1.579,12.793-25.823-2.448-56.7-18.321-77.389-1.106-1.421-2.448-3-4.027-4.659l-5.923,6.633,2.922-9.792C121.76,102.048,95.069,81.437,92.7,79.7c4.9,12.082,8.213,39.484,15.952,66.254"
         class="a" />
    </clipPath>
    <clipPath
       id="h">
      <path
         id="path16"
         transform="translate(-3.755 -195.6)"
         d="M45.249,195.837a4.659,4.659,0,0,0-3.948,2.211c-.79,1.421-.474,3.317-1.185,4.738s-3,2.527-4.975,2.448a15.793,15.793,0,0,1-5.528-1.9c-4.422-2.053-9-4.027-13.9-4.027-7.818-.079-16.11,6.554-9.634,14.372,2.527,3,6.791,3.633,10.74,3.869s14.609.474,11.371,6.633a22.005,22.005,0,0,0-1.9,3.554c-.711,2.606,1.027,5.449,3.475,6.633a13.089,13.089,0,0,0,7.976.711c2.685-.474,5.291-1.263,7.976-1.5s4.5.395,4.975,2.369-1.579,3.711-2.053,5.765,1.263,4.58,3.4,5.528,4.58.79,6.949.632l6.949-.474c2.527-.158,5.528-.079,6.791,2.053s.632,2.922.948,4.422c.632,2.922,3.317,4.343,6.238,5.133a19.3,19.3,0,0,0,9-.158c6.949-1.421,18.321-2.764,21.321-10.345a16.035,16.035,0,0,0,.632-7.739,51.093,51.093,0,0,0-5.844-19.031,12.161,12.161,0,0,0-3.79-4.659A5,5,0,0,0,95.552,217c-1.579,1.263-2.29,3.08-4.659,1.974-4.264-2.053-6.791-7.5-9.634-10.977s-6.87-7.186-10.582-5.37c-2.527,1.263-2.211,5.607-5.133,6.317a3.632,3.632,0,0,1-3-.948c-4.975-4.027-9.95-12.319-17.057-12.4h-.474"
         class="a" />
    </clipPath>
  </defs>
  <g
     id="g241"
     transform="translate(157.976 131.415)">
    <g
       id="g239"
       transform="translate(-157.976 -131.415)">
      <g
         id="g27"
         clip-path="url(#a)"
         class="b">
        <path
           id="path21"
           transform="translate(-8.246 0.005)"
           d="M216.091,221.738l-.237-.395c7.265-4.264,15.715-4.58,23.848-4.9,3.317-.158,6.791-.237,10.108-.632,15.4-1.9,26.691-11.845,30.324-26.533a40.507,40.507,0,0,0-9.634-37.431l-1.421-1.5a58.2,58.2,0,0,1-8.844-10.819c-5.37-9.239-3.869-21.4,4.027-32.693l2.922-4.027c3.08-4.185,6.238-8.529,8.292-13.425s3-13.5,1.579-21.321c-2.29-12.793-9.476-24.243-19.268-30.8-12.714-8.45-26.138-6.554-40.353-4.659-7.5,1.027-15.162,2.053-22.743,1.421a43.669,43.669,0,0,1-29.376-14.767C150.073,1.89,126.857-4.348,108.852,4.338c-11.056,5.37-20.058,15.478-24.8,27.8-2.685,7.028-3.238,14.609-3.79,21.953s-1.027,13.977-3.317,20.69C74.264,82.754,69.21,89.861,63.05,94.2c-8.45,6-14.214,11.766-18.084,18.163-5.607,9.239-6.87,20.058-3.317,28.429,2.606,6,7.581,9.792,12.4,13.5s10.187,7.818,12.556,14.135a23.691,23.691,0,0,1,1.263,8.371,67.123,67.123,0,0,1-1.421,11.45c-1.185,6.4-2.369,13.03-.237,19.347s10.819,10.74,25.112,10.977h5.291c6.87-.079,13.9-.079,20.453,2.211l-.158.474c-6.4-2.29-13.5-2.211-20.295-2.211H91.321c-14.451-.237-23.059-4.027-25.507-11.292s-.948-13.109.158-19.584a66.728,66.728,0,0,0,1.5-11.529,23.3,23.3,0,0,0-1.263-8.213c-2.29-6.238-7.186-9.95-12.4-13.9s-9.95-7.581-12.556-13.662c-3.633-8.45-2.369-19.505,3.317-28.823,3.948-6.4,9.713-12.24,18.242-18.242A38.833,38.833,0,0,0,76.475,74.62c2.29-6.712,2.843-13.74,3.317-20.611s1.106-15,3.79-22.032C88.4,19.5,97.48,9.313,108.615,3.944c18.242-8.844,41.7-2.527,57.015,15.241a43.2,43.2,0,0,0,29.06,14.53c7.5.632,15.162-.474,22.585-1.421,13.661-1.9,27.876-3.79,40.669,4.738,9.871,6.554,17.215,18.163,19.505,31.035,1.421,7.9.869,15.557-1.579,21.558s-5.212,9.318-8.371,13.5l-2.922,3.948c-7.739,11.056-9.239,23.138-4.027,32.14,2.29,4.027,5.607,7.423,8.765,10.74l1.421,1.5a41.093,41.093,0,0,1,9.713,37.826c-3.633,14.846-15.162,24.954-30.719,26.849-3.317.395-6.791.553-10.108.711-8.134.316-16.5.632-23.611,4.817"
           class="c" />
        <path
           id="path23"
           transform="translate(-9.3 -1.782)"
           d="M52.97,104.836c-6.238,8.844-10.977,20.848-7.66,31.9s13.9,17.847,18.558,28.35c2.606,5.923,2.685,12.477,2.764,18.794.158,8.371-1.5,17.215,4.106,24.243,3.317,4.185,8.371,6.633,13.425,8.213,10.187,3.238,20.927,4.738,30.008,10.9,14.925,10.108,33.246,13.583,50.935,12.477a115.373,115.373,0,0,0,26.533-4.9c10.029-3.08,18.952-8.45,29.06-11.371,17.531-5.054,41.379-5.133,51.645-22.822,6.87-11.924,9.318-26.612,3.948-39.642-2.527-6.16-7.423-10.9-10.187-16.978a38.852,38.852,0,0,1-2.29-26.849l.316-1.106c2.685-8.292,8.055-15.478,10.266-23.927,4.58-17.452-5.528-35.931-18.873-47.223a56.657,56.657,0,0,0-18.479-10.74c-18.637-6.081-39.326.948-57.963-4.975-14.293-4.5-26.06-16.346-40.669-19.742-11.213-2.606-23.3.158-32.851,7.028S89.137,34.317,85.978,46.084,83.135,69.063,78,78.934C73.58,87.463,65.368,92.043,58.734,98.2a41.538,41.538,0,0,0-5.686,6.633"
           class="d" />
        <path
           id="path25"
           transform="translate(-48.692 -44.135)"
           d="M286.7,262.877a175.064,175.064,0,0,0,17.136-9.239l-8.213-7.028,13.5,3.712c23.3-15,43.748-33.4,55.357-39.168-2.922-.237-36.4-2.29-57.726-.711l-4.264,9.239v-8.923c-2.29.237-4.264.553-6.081.869-25.428,5.054-57.094,18.242-64.438,45.96-3.08,11.687,10.029,3.948,18.637,4.185l36.167,1.106"
           class="e" />
      </g>
      <g
         id="g43"
         clip-path="url(#b)"
         transform="translate(182.893 165.833)"
         class="f">
        <path
           id="path29"
           transform="translate(-257.009 -212.797)"
           d="M380.118,230.17c-.237-.079-21.874-4.106-27.718-6.475l.158-.395c5.765,2.369,27.4,6.4,27.639,6.475Z"
           class="g" />
        <path
           id="path31"
           transform="translate(-230.109 -210.126)"
           d="M224.816,271.721l-.316-.395c17.847-14.53,39.563-27.323,64.359-38.063,21.321-9.239,44.143-14.846,66.1-20.216l9.95-2.448v.474l-9.95,2.448c-22.032,5.449-44.775,10.977-66.017,20.216-24.8,10.74-46.433,23.533-64.28,38.063"
           class="g" />
        <path
           id="path33"
           transform="translate(-252.13 -206.992)"
           d="M329.595,223.418l-.395-.158c4.264-9.792,16.188-27.4,16.267-27.56l.395.237c-.158.158-12,17.768-16.267,27.481"
           class="g" />
        <path
           id="path35"
           transform="translate(-245.547 -207.939)"
           d="M298.374,234.077H297.9A190.787,190.787,0,0,1,310.061,200.2l.395.237a190.315,190.315,0,0,0-12.161,33.8"
           class="g" />
        <path
           id="path37"
           transform="translate(-248.155 -215.784)"
           d="M353.1,254.478c-9.95-.948-34.509-12.082-42.8-16.583l.237-.395c8.292,4.5,32.772,15.557,42.643,16.583Z"
           class="g" />
        <path
           id="path39"
           transform="translate(-239.805 -219.822)"
           d="M313.717,273.994c-13.03-1.185-25.191-6.87-43.117-16.9l.237-.395c17.847,10.029,30.008,15.636,42.959,16.9Z"
           class="g" />
        <path
           id="path41"
           transform="translate(-238.228 -209.306)"
           d="M263.574,249.659H263.1c.474-1.9.869-3.948,1.342-6.081,2.606-11.924,5.765-26.77,12.872-36.878l.395.237c-7.028,10.029-10.266,24.8-12.793,36.72-.474,2.132-.869,4.185-1.342,6.081"
           class="g" />
      </g>
      <g
         id="g47"
         clip-path="url(#a)"
         class="b">
        <path
           id="path45"
           transform="translate(-49.679 -29.961)"
           d="M263.6,222.012c-7.107.632-18.558,1.9-23.611-4.5a15.844,15.844,0,0,1-2.843-7.186,51.092,51.092,0,0,1,.079-19.9,12.161,12.161,0,0,1,2.29-5.528,4.908,4.908,0,0,1,5.449-1.658c1.9.79,3.08,2.29,4.975.553,3.475-3.159,4.343-9.081,6.081-13.267s4.5-8.844,8.608-8.134c2.764.474,3.712,4.738,6.712,4.58a3.633,3.633,0,0,0,2.606-1.737c3.712-5.37,6.081-15.162,13.267-16.9a4.659,4.659,0,0,1,4.422.948c1.185,1.185,1.421,3,2.527,4.264s3.633,1.579,5.449.869a15.793,15.793,0,0,0,4.738-3.4c3.633-3.238,7.5-6.4,12.161-7.9,7.5-2.369,17.294,1.658,13.346,10.977-1.5,3.633-5.528,5.449-9.16,6.791s-13.9,4.659-9,9.634a19.347,19.347,0,0,1,2.843,2.843c.711,1.106.553,5.528-1.421,7.344a13.2,13.2,0,0,1-7.423,3c-2.685.316-5.449.316-8.055.869s-4.185,1.658-4.106,3.712,2.606,3.159,3.633,4.975.079,4.738-1.658,6.238-4.185,2.053-6.475,2.606l-6.791,1.579c-2.448.553-5.291,1.5-5.923,3.948s.237,3,.395,4.5c.237,3-1.737,5.844-4.264,7.5s-5.607,2.132-8.608,2.448"
           class="h" />
      </g>
      <g
         id="g57"
         clip-path="url(#d)"
         transform="translate(186.374 112.293)"
         class="i">
        <path
           id="path49"
           transform="translate(-234.641 -141.611)"
           d="M229.816,228.081l-.316-.316c7.818-8.844,16.031-17.61,24.243-26.138,5.291-5.449,10.977-10.424,16.5-15.241l6.949-6.16c3.238-2.922,6.633-5.923,10.029-8.765,14.688-12.319,31.271-22.348,47.381-32.061l.237.395c-16.031,9.713-32.693,19.742-47.3,32.061-3.4,2.843-6.791,5.844-10.029,8.765l-6.949,6.16c-5.528,4.817-11.214,9.792-16.5,15.241-8.213,8.45-16.425,17.294-24.243,26.06"
           class="j" />
        <path
           id="path51"
           transform="translate(-243.036 -144.387)"
           d="M295.542,199.112a251.842,251.842,0,0,1-25.823-1.421h-.158v-.158c-.79-12.4,1.737-36.325,4.817-44.933l.474.158c-3.08,8.529-5.607,32.219-4.817,44.617,3,.316,40.906,4.422,53.461-2.922l.237.395c-5.923,3.475-17.294,4.422-28.113,4.422"
           class="j" />
        <path
           id="path53"
           transform="translate(-248.354 -140.475)"
           d="M300.307,176.09H294.7v-.237c.079-.316,5.923-29.771,12.319-41.853l.395.237c-6,11.371-11.608,38.379-12.24,41.379,3.238.079,33.719.316,43.038-2.448l.158.474c-7.5,2.211-28.192,2.527-38.142,2.527"
           class="j" />
        <path
           id="path55"
           transform="translate(-237.55 -151.075)"
           d="M283.5,226.964c-15.32,0-33.956-7.581-34.114-7.66h-.079c-6.16-12-6.238-24.322-5.844-34.9h.474c-.395,10.5-.316,22.743,5.765,34.588,1.421.553,22.427,8.923,37.668,7.423v.474l-3.869.158"
           class="j" />
      </g>
      <g
         id="g89"
         clip-path="url(#a)"
         class="b">
        <path
           id="path59"
           transform="translate(-51.738 -23.135)"
           d="M246.474,212.817H246C251.212,178.15,273.718,123.9,282.957,110l.395.237c-9.239,13.9-31.666,68.071-36.878,102.659"
           class="e" />
        <path
           id="path61"
           transform="translate(-61.392 -18.451)"
           d="M296.243,95.524a21.637,21.637,0,0,1,3.08-5.765c.869-1.027,2.764-2.606,4.264-1.816,4.264,2.369-4.817,11.766-6.4,13.188s-5.291,5.37-5.291,5.37,2.843-7.5,4.343-11.135"
           class="e" />
        <path
           id="path63"
           transform="translate(-60.34 -23.522)"
           d="M294.8,114.02a16.821,16.821,0,0,1,4.58-2.053c1.027-.237,2.922-.237,3.475.869,1.5,3.475-8.529,5.054-10.187,5.133s-5.765.869-5.765.869l7.9-4.817"
           class="e" />
        <path
           id="path65"
           transform="translate(-59.096 -20.892)"
           d="M282.26,107.52a16.819,16.819,0,0,1-1.264-4.9c-.079-1.027.237-2.922,1.5-3.238,3.711-.869,3.475,9.318,3.317,10.9s-.158,5.844-.158,5.844-2.369-5.765-3.4-8.608"
           class="e" />
        <path
           id="path67"
           transform="translate(-59.036 -26.061)"
           d="M288.36,126.508a16.82,16.82,0,0,1,4.5-2.369c.948-.316,2.922-.474,3.475.711,1.737,3.4-8.292,5.449-9.871,5.686s-5.765,1.185-5.765,1.185,5.133-3.633,7.66-5.291"
           class="e" />
        <path
           id="path69"
           transform="translate(-57.622 -23.723)"
           d="M275.5,121.011a16.819,16.819,0,0,1-1.5-4.817c-.079-1.027.079-2.922,1.263-3.317,3.633-1.106,3.948,9.081,3.869,10.74s.158,5.844.158,5.844-2.685-5.686-3.869-8.45"
           class="e" />
        <path
           id="path71"
           transform="translate(-57.585 -29.127)"
           d="M282.487,141.5a19.346,19.346,0,0,1,5.133-2.764c1.106-.316,3.317-.553,4.027.79,2.053,3.869-9.4,6.475-11.292,6.712s-6.554,1.421-6.554,1.421,5.844-4.264,8.686-6.16"
           class="e" />
        <path
           id="path73"
           transform="translate(-55.87 -26.472)"
           d="M267.5,135.369a19.346,19.346,0,0,1-1.816-5.528c-.158-1.185.079-3.4,1.421-3.869,4.185-1.342,4.738,10.424,4.659,12.24s.316,6.712.316,6.712-3.159-6.475-4.58-9.634"
           class="e" />
        <path
           id="path75"
           transform="translate(-56.176 -32.443)"
           d="M275.629,157.608a19.347,19.347,0,0,1,4.975-3c1.106-.395,3.317-.711,4.027.553,2.211,3.79-9.16,6.87-10.977,7.186s-6.554,1.737-6.554,1.737,5.607-4.5,8.45-6.554"
           class="e" />
        <path
           id="path77"
           transform="translate(-54.309 -30.04)"
           d="M260.337,152.283a19.347,19.347,0,0,1-2.053-5.449c-.158-1.185-.079-3.4,1.264-3.869,4.106-1.5,5.133,10.187,5.212,12.082s.553,6.712.553,6.712-3.4-6.317-4.975-9.4"
           class="e" />
        <path
           id="path79"
           transform="translate(-54.704 -36.059)"
           d="M269.339,175.674a22.269,22.269,0,0,1,5.607-3.712c1.263-.474,3.79-1.027,4.738.395,2.764,4.185-10.108,8.371-12.161,8.923s-7.423,2.369-7.423,2.369,6.238-5.449,9.318-7.976"
           class="e" />
        <path
           id="path81"
           transform="translate(-52.262 -33.598)"
           d="M251.341,170.687a22.269,22.269,0,0,1-2.685-6.16c-.316-1.342-.316-3.869,1.264-4.58,4.659-1.974,6.475,11.371,6.712,13.5s1.027,7.66,1.027,7.66-4.264-7.028-6.238-10.5"
           class="e" />
        <path
           id="path83"
           transform="translate(-53.4 -39.896)"
           d="M262.508,194.516a22.27,22.27,0,0,1,5.291-4.106c1.185-.632,3.711-1.264,4.738.079,3.08,3.948-9.4,9.16-11.45,9.871s-7.186,2.922-7.186,2.922,5.765-5.923,8.608-8.687"
           class="e" />
        <path
           id="path85"
           transform="translate(-50.586 -37.933)"
           d="M243.98,191.211a22.269,22.269,0,0,1-3.159-5.923c-.395-1.264-.632-3.869.869-4.659,4.422-2.29,7.344,10.819,7.739,12.951s1.658,7.581,1.658,7.581-4.817-6.712-7.028-10.029"
           class="e" />
        <path
           id="path87"
           transform="translate(-19.475 -16.762)"
           d="M121.265,152.114l-12.714-6.16C100.892,119.184,97.575,91.782,92.6,79.7c2.369,1.737,28.981,22.348,44.143,37.668l-2.922,9.792,5.923-6.633c1.579,1.658,2.922,3.238,4.027,4.659,15.873,20.69,31.113,51.566,18.321,77.389-5.37,10.819-16.583,3.869-23.3-1.579-13.583-11.056-22.348-29.534-28.429-48.96Z"
           class="e" />
      </g>
      <g
         id="g105"
         clip-path="url(#f)"
         transform="translate(73.204 62.938)"
         class="k">
        <path
           id="path91"
           transform="translate(-91.817 -84.6)"
           d="M113.77,116.819c-6-2.053-25.033-13.346-25.27-13.425l.237-.395c.158.079,19.189,11.371,25.191,13.425Z"
           class="g" />
        <path
           id="path93"
           transform="translate(-92.342 -79.216)"
           d="M156.938,216.384c-3.869-22.743-11.766-46.749-23.454-71.308-10.029-21.085-23.533-40.353-36.562-58.989L91,77.637l.395-.237,5.923,8.45c13.03,18.636,26.612,37.984,36.562,59.068,11.687,24.559,19.584,48.565,23.454,71.387Z"
           class="g" />
        <path
           id="path95"
           transform="translate(-101.197 -84.159)"
           d="M133.574,132.566l-.474-.158c3.238-10.187,5.844-31.35,5.923-31.508h.474c0,.237-2.685,21.4-5.923,31.666"
           class="g" />
        <path
           id="path97"
           transform="translate(-104.436 -89.9)"
           d="M148.895,162.077l-.395-.237a191.1,191.1,0,0,0,13.188-33.64l.474.158a191.734,191.734,0,0,1-13.267,33.719"
           class="g" />
        <path
           id="path99"
           transform="translate(-91.733 -92.088)"
           d="M131.454,154.788c-9.239-2.053-35.22-9.95-43.354-15.794l.237-.395c8.134,5.765,33.956,13.661,43.2,15.715Z"
           class="g" />
        <path
           id="path101"
           transform="translate(-95.245 -100.669)"
           d="M148.627,195.51c-20.216-4.264-33.167-8.055-43.827-15.715l.237-.395c10.582,7.66,23.454,11.371,43.59,15.636Z"
           class="g" />
        <path
           id="path103"
           transform="translate(-107.464 -95.432)"
           d="M163.295,196.432l-.395-.237,3-5.449c5.923-10.661,13.267-24.006,14.609-36.246h.474c-1.263,12.319-8.687,25.665-14.688,36.4l-3,5.449"
           class="g" />
      </g>
      <g
         id="g109"
         clip-path="url(#a)"
         class="b">
        <path
           id="path107"
           transform="translate(-0.748 -41.198)"
           d="M88.955,259.071c6.949-1.421,18.321-2.764,21.321-10.345a16.035,16.035,0,0,0,.632-7.739,51.093,51.093,0,0,0-5.844-19.031,12.161,12.161,0,0,0-3.79-4.659,5,5,0,0,0-5.686-.079c-1.579,1.263-2.29,3.08-4.659,1.974-4.264-2.053-6.791-7.5-9.634-10.977s-6.87-7.186-10.582-5.37c-2.527,1.263-2.211,5.607-5.133,6.317a3.633,3.633,0,0,1-3-.948C57.526,204.109,52.393,195.5,45.049,195.9a4.659,4.659,0,0,0-3.948,2.211c-.79,1.421-.474,3.317-1.185,4.738s-3,2.527-4.975,2.448a15.793,15.793,0,0,1-5.528-1.9c-4.422-2.053-9-4.027-13.9-4.027-7.818-.079-16.11,6.554-9.634,14.293,2.527,3,6.791,3.633,10.74,3.869s14.609.474,11.371,6.633a22.005,22.005,0,0,0-1.9,3.554c-.711,2.606,1.027,5.449,3.475,6.633a13.089,13.089,0,0,0,7.976.711c2.685-.474,5.291-1.264,7.976-1.5s4.5.395,4.975,2.369-1.579,3.711-2.053,5.765,1.263,4.58,3.4,5.528,4.58.79,6.949.632l6.949-.474c2.527-.158,5.528-.079,6.791,2.053s.632,2.922.948,4.422c.632,2.922,3.317,4.343,6.238,5.133a19.3,19.3,0,0,0,9-.158"
           class="h" />
      </g>
      <g
         id="g119"
         clip-path="url(#h)"
         transform="translate(2.965 154.462)"
         class="l">
        <path
           id="path111"
           transform="translate(-1.682 -197.346)"
           d="M119.775,258.7c-10.029-6.238-20.374-12.24-30.719-18-6.633-3.712-13.5-6.791-20.137-9.871l-8.45-3.869c-3.948-1.9-8.055-3.79-12.082-5.528-17.531-7.5-36.325-12.4-54.488-17.057V203.9c18.163,4.659,37.036,9.555,54.567,17.057,4.106,1.737,8.134,3.712,12.161,5.528l8.45,3.869c6.633,3,13.583,6.16,20.216,9.871,10.345,5.765,20.69,11.845,30.719,18Z"
           class="j" />
        <path
           id="path113"
           transform="translate(-10.663 -194.717)"
           d="M41.575,246.52a21.717,21.717,0,0,1-4.975-.474v-.474c14.135,3.4,49.2-11.371,52.04-12.635-2.843-12.082-12-33.956-17.452-41.3l.395-.237c5.449,7.423,14.767,29.613,17.531,41.7v.158h-.079c-.316.158-30.64,13.188-47.46,13.188"
           class="j" />
        <path
           id="path115"
           transform="translate(-6.919 -193.097)"
           d="M18.8,230.686v-.474c9.792,0,38.852-9.081,41.932-10.029-1.421-2.685-14.53-27.007-23.612-36.167l.316-.316c9.555,9.713,23.69,36.246,23.769,36.483l.158.237h-.237c-.316.079-31.982,10.108-42.327,10.108"
           class="j" />
        <path
           id="path117"
           transform="translate(-20.463 -199.133)"
           d="M83.2,265.861v-.474c15.083-3,32.693-16.978,33.956-18,2.369-13.109-1.027-24.8-4.422-34.825l.474-.158c3.4,10.029,6.87,21.874,4.422,35.141h-.079c-.158.158-18.558,15-34.193,18.084"
           class="j" />
      </g>
      <g
         id="g237"
         clip-path="url(#a)"
         class="b">
        <path
           id="path121"
           transform="translate(-11.399 -31.106)"
           d="M127.719,228.842C109.557,198.913,68.1,157.534,54.2,148.295l.237-.395c13.9,9.318,55.436,50.777,73.6,80.706Z"
           class="e" />
        <path
           id="path123"
           transform="translate(-6.87 -27.79)"
           d="M42.8,137a21.637,21.637,0,0,0-5.054-4.106c-1.185-.632-3.554-1.342-4.58,0-3.08,3.79,9,9.081,10.977,9.792s6.949,3,6.949,3-5.528-5.844-8.292-8.608"
           class="e" />
        <path
           id="path125"
           transform="translate(-8.938 -32.252)"
           d="M50.4,153.626a16.82,16.82,0,0,0-5.054-.158c-1.027.158-2.843.869-2.843,2.132-.079,3.79,9.792,1.342,11.371.869s5.686-1.421,5.686-1.421l-9.16-1.421"
           class="e" />
        <path
           id="path127"
           transform="translate(-12.139 -28.264)"
           d="M62.6,141.82a16.82,16.82,0,0,0-.711-4.975c-.316-.948-1.342-2.606-2.606-2.448-3.79.553.395,9.871,1.106,11.371s2.369,5.37,2.369,5.37-.079-6.238-.158-9.239"
           class="e" />
        <path
           id="path129"
           transform="translate(-11.208 -34.144)"
           d="M61.274,162.783a16.82,16.82,0,0,0-5.054-.395c-1.027.079-2.843.711-2.922,1.974-.316,3.79,9.713,1.9,11.292,1.5s5.765-1.106,5.765-1.106l-9.081-1.9"
           class="e" />
        <path
           id="path131"
           transform="translate(-14.605 -30.283)"
           d="M74.068,151.578a16.82,16.82,0,0,0-.474-5.054c-.316-.948-1.185-2.685-2.448-2.527-3.79.395-.158,9.871.474,11.371s2.132,5.449,2.132,5.449.237-6.238.316-9.239"
           class="e" />
        <path
           id="path133"
           transform="translate(-13.184 -36.588)"
           d="M71.937,174.545a19.346,19.346,0,0,0-5.765-.553c-1.185.158-3.317.79-3.475,2.211-.395,4.343,11.135,2.369,12.951,1.9s6.633-1.185,6.633-1.185l-10.424-2.369"
           class="e" />
        <path
           id="path135"
           transform="translate(-17.159 -32.178)"
           d="M86.809,161.844A19.347,19.347,0,0,0,86.414,156c-.316-1.106-1.342-3.08-2.843-3-4.343.395-.316,11.371.395,13.109s2.369,6.317,2.369,6.317.395-7.186.553-10.661"
           class="e" />
        <path
           id="path137"
           transform="translate(-15.811 -39.119)"
           d="M84.513,186.789a19.346,19.346,0,0,0-5.765-.79c-1.185.079-3.317.632-3.554,2.132-.553,4.343,11.056,2.764,12.872,2.448s6.712-.948,6.712-.948l-10.266-2.843"
           class="e" />
        <path
           id="path139"
           transform="translate(-19.955 -34.87)"
           d="M99.871,174.723a19.347,19.347,0,0,0-.158-5.844c-.237-1.185-1.185-3.159-2.685-3.08-4.343.158-.869,11.371-.158,13.109s2.053,6.4,2.053,6.4.711-7.186.948-10.582"
           class="e" />
        <path
           id="path141"
           transform="translate(-18.096 -42.064)"
           d="M96.827,201.264A22.269,22.269,0,0,0,90.273,200c-1.342,0-3.869.553-4.185,2.211-.948,4.975,12.556,3.869,14.688,3.554s7.739-.632,7.739-.632-7.818-2.685-11.608-3.79"
           class="e" />
        <path
           id="path143"
           transform="translate(-23.062 -37.394)"
           d="M115.139,188.224a22.269,22.269,0,0,0,.158-6.712c-.237-1.342-1.185-3.712-2.922-3.712-5.054-.079-1.658,13.03-.948,15.083s1.974,7.5,1.974,7.5,1.263-8.134,1.737-12.161"
           class="e" />
        <path
           id="path145"
           transform="translate(-20.946 -45.026)"
           d="M110.5,215.913a22.268,22.268,0,0,0-6.475-1.816c-1.342-.079-3.869.237-4.343,1.9-1.263,4.817,12.161,4.817,14.372,4.659s7.739-.079,7.739-.079-7.581-3.238-11.292-4.738"
           class="e" />
        <path
           id="path147"
           transform="translate(-26.218 -40.756)"
           d="M129.746,204.378a22.269,22.269,0,0,0,.632-6.633c-.158-1.342-.948-3.79-2.606-3.948-4.975-.474-2.606,12.872-2.132,14.925s1.421,7.66,1.421,7.66,1.9-8.055,2.685-12"
           class="e" />
        <path
           id="path149"
           transform="translate(-16.512 -24.563)"
           d="M78.581,120.509c.474,2.922,3.4,6.633,5.607,6.4a3.159,3.159,0,0,0,2.448-2.527,6.87,6.87,0,0,0-.395-3.633c-.79-2.448-4.58-5.765-7.107-2.764a3.08,3.08,0,0,0-.553,2.527"
           class="m" />
        <path
           id="path151"
           transform="translate(-66.945 -26.437)"
           d="M322.487,134.229c2.843-.948,6-4.422,5.37-6.554a3.159,3.159,0,0,0-2.843-1.974,6.87,6.87,0,0,0-3.554,1.027c-2.29,1.185-4.9,5.449-1.579,7.423a3.08,3.08,0,0,0,2.606.079"
           class="e" />
        <path
           id="path153"
           transform="translate(-13.507 -19.069)"
           d="M64.283,93.615c.316,2.29,2.685,5.212,4.343,4.975a2.448,2.448,0,0,0,1.9-1.974,5.37,5.37,0,0,0-.316-2.843c-.632-1.9-3.554-4.5-5.528-2.211a2.448,2.448,0,0,0-.395,1.974"
           class="e" />
        <path
           id="path155"
           transform="translate(-74.608 -35.65)"
           d="M357.393,175.661c2.29-.158,5.449-2.132,5.37-3.948a2.448,2.448,0,0,0-1.737-2.053,5.37,5.37,0,0,0-2.843.079c-1.974.474-4.817,3.159-2.685,5.37a2.448,2.448,0,0,0,1.974.632"
           class="e" />
        <path
           id="path157"
           transform="translate(-12.312 -22.736)"
           d="M58.667,110.075c.237,1.579,1.816,3.633,3,3.475a1.658,1.658,0,0,0,1.342-1.342,3.712,3.712,0,0,0-.237-1.974c-.474-1.342-2.448-3.08-3.869-1.5a1.658,1.658,0,0,0-.316,1.421"
           class="e" />
        <path
           id="path159"
           transform="translate(-72.872 -39.192)"
           d="M348.55,190.811c1.579-.316,3.554-1.974,3.4-3.159a1.658,1.658,0,0,0-1.421-1.263,3.711,3.711,0,0,0-1.974.237c-1.342.474-3,2.527-1.421,3.869a1.658,1.658,0,0,0,1.421.237"
           class="m" />
        <path
           id="path161"
           transform="translate(-58.548 -15.999)"
           d="M281.633,80.911c.869-1.342,1.106-3.869.079-4.58a1.658,1.658,0,0,0-1.9.079,3.712,3.712,0,0,0-1.185,1.579c-.553,1.264-.316,3.948,1.816,3.712a1.658,1.658,0,0,0,1.185-.79"
           class="m" />
        <path
           id="path163"
           transform="translate(-4.88 -38.25)"
           d="M24.227,185.368c1.5.711,4.027.474,4.58-.632a1.658,1.658,0,0,0-.395-1.816,3.712,3.712,0,0,0-1.737-.948c-1.342-.395-3.948.316-3.4,2.369a1.658,1.658,0,0,0,1.027,1.027"
           class="m" />
        <path
           id="path165"
           transform="translate(-67.57 -21.939)"
           d="M323.98,109.2c1.342-.869,2.527-3.159,1.9-4.185a1.658,1.658,0,0,0-1.816-.632,3.711,3.711,0,0,0-1.737,1.027c-1.027.948-1.816,3.554.237,4.106a1.658,1.658,0,0,0,1.421-.316"
           class="e" />
        <path
           id="path167"
           transform="translate(-2.944 -43.846)"
           d="M246.246,262.588h58.436c-4.027-2.369-8.765-3.554-13.267-4.817s-10.9-3.238-14.925-7.107-6.712-10.266-11.924-13.188c-6.475-3.633-14.056-.869-20.848-.395a29.768,29.768,0,0,1-18.321-4.343c-9.555-6.317-13.109-20.769-24.322-23.454-8.134-1.974-15.873,3.554-23.769,6.317-11.608,4.027-20.058.316-31.113-2.764a136.7,136.7,0,0,0-26.059-4.264c-7.423-.474-15.162.711-21.321,4.817-7.5,4.9-11.845,12.951-18.321,18.952-3,2.764-6.791,4.264-9.634,6.949s-4.343,6.554-8.529,8.213c-7.107,2.764-15.32,2.448-22.822,3.317s-13.977,2.685-19.742,6.633A27.481,27.481,0,0,0,14,262.588H246.246"
           class="n" />
        <path
           id="path169"
           transform="translate(-15.606 -59.604)"
           d="M276.517,290.9c0,4.185-45.328,7.5-101.158,7.5S74.2,295.008,74.2,290.9s45.328-7.5,101.158-7.5,101.158,3.4,101.158,7.5"
           class="o" />
        <path
           id="path171"
           transform="translate(-22.35 -48.845)"
           d="M255.307,249.74a28.664,28.664,0,0,1-6,5.449c-11.845,8.292-25.981,13.9-40.037,17.531-12.556,3.238-25.665,3.08-38.458,1.816-8.765-.869-17.452-3.554-25.9-6.081a152.1,152.1,0,0,1-25.428-9.792c-6.4-3.238-12.082-7.265-13.109-14.925-.395-3,.316-6.317,2.606-8.371s6.949-2.369,10.74-2.053c21.163,1.658,41.7,8.765,63.017,8.923,11.924.079,22.98-3,34.43-5.844,8.844-2.132,18.637-4.5,27.8-4.106s16.583,9.634,10.424,17.373"
           class="p" />
        <path
           id="path173"
           transform="translate(-29.022 -41.409)"
           d="M161.689,224.378l-.711-1.579a79.915,79.915,0,0,1-5.607-18.084c-.395-2.211-.869-4.659-2.527-6.238s-7.028-1.816-9.95-1.421a5.291,5.291,0,0,0-3.633,1.737c-1.342,1.816-1.264,6-1.264,8.213-.316,13.5,10.345,24.559,18.952,33.719,1.658,1.737,3.475,3.554,5.765,4.264s5.212,0,6.238-2.211.316-3.475-.316-5.212a33.956,33.956,0,0,0-4.264-8.055,29.771,29.771,0,0,1-2.764-5.133"
           class="q" />
        <path
           id="path175"
           transform="translate(-47.205 -41.409)"
           d="M232.227,224.378l.711-1.579a79.836,79.836,0,0,0,5.607-18.084c.395-2.211.869-4.659,2.527-6.238s7.028-1.816,9.95-1.421a5.291,5.291,0,0,1,3.633,1.737c1.342,1.816,1.264,6,1.264,8.213.316,13.5-10.345,24.559-18.952,33.719-1.658,1.737-3.475,3.554-5.765,4.264s-5.212,0-6.238-2.211-.316-3.475.316-5.212a33.956,33.956,0,0,1,4.264-8.055,29.773,29.773,0,0,0,2.764-5.133"
           class="q" />
        <path
           id="path177"
           transform="translate(-29.059 -30.654)"
           d="M145.695,170.27l-2.369,6.238c-2.685,7.186-9,19.347-1.9,25.981.79.711,2.764.711,3.79.474,2.922-.553,4.343-3.238,5.765-5.528,4.264-6.87,7.344-14.372,11.371-21.321,2.922-5.054,4.422-10.977,5.844-16.583.948-3.712,2.132-9-.948-12.082a6.081,6.081,0,0,0-4.9-1.658,9.4,9.4,0,0,0-3,1.027,10.979,10.979,0,0,0-2.29,1.421c-1.737,1.5-2.606,3.633-3.633,5.607s-2.448,4.58-3.554,6.949-2.843,6.238-4.106,9.476"
           class="q" />
        <path
           id="path179"
           transform="translate(-30.244 -29.628)"
           d="M150.117,157.872c3.948-7.265,9.081-13.819,17.057-16.425,2.29-.79,5.054-.948,6.791.711a5.37,5.37,0,0,1,1.342,4.185c-.158,2.211-1.106,4.264-1.579,6.317a70.125,70.125,0,0,1-6.081,16.188c-.553,1.106-4.817,13.03-4.5,13.346a50.7,50.7,0,0,0-10.108-7.028c-.869-.395-9-4.58-9.239-4.027,1.9-4.185,3.869-8.844,6.238-13.267"
           class="r" />
        <path
           id="path181"
           transform="translate(-47.508 -30.654)"
           d="M249.43,170.27l2.369,6.238c2.685,7.186,9,19.347,1.9,25.981-.79.711-2.764.711-3.79.474-2.922-.553-4.343-3.238-5.765-5.528-4.264-6.87-7.344-14.372-11.371-21.321-2.922-5.054-4.422-10.977-5.844-16.583-.948-3.712-2.132-9,.948-12.082a6.081,6.081,0,0,1,4.9-1.658,9.4,9.4,0,0,1,3,1.027,10.978,10.978,0,0,1,2.29,1.421c1.737,1.5,2.606,3.633,3.633,5.607s2.448,4.58,3.554,6.949,2.843,6.238,4.106,9.476"
           class="q" />
        <path
           id="path183"
           transform="translate(-46.198 -29.628)"
           d="M244.882,157.872c-3.948-7.265-9.081-13.819-17.057-16.425-2.29-.79-5.054-.948-6.791.711a5.37,5.37,0,0,0-1.342,4.185c.158,2.211,1.106,4.264,1.579,6.317a70.125,70.125,0,0,0,6.081,16.188c.553,1.106,4.817,13.03,4.5,13.346a50.7,50.7,0,0,1,10.108-7.028c.869-.395,9-4.58,9.239-4.027-1.9-4.185-3.79-8.844-6.238-13.267"
           class="r" />
        <path
           id="path185"
           transform="translate(-34.792 -29.171)"
           d="M222.184,213.167l-.158-.632c-1.9-8.134-2.132-16.5-1.9-24.8s2.053-16.11,2.29-24.243c.237-9.4-1.342-22.664-13.109-23.769-4.817-.474-9.713-.948-14.609-1.027h-1.027c-4.9.079-9.792.553-14.609,1.027C167.3,140.832,165.722,154.1,165.959,163.5c.237,8.134,2.053,16.11,2.29,24.243a101.078,101.078,0,0,1-1.9,24.8l-.158.632a11.585,11.585,0,0,0-.711,4.58c.632,3.317,8.608,4.975,11.371,5.686a84.259,84.259,0,0,0,15.478,2.29H196.2a84.258,84.258,0,0,0,15.478-2.29c2.685-.711,10.74-2.369,11.371-5.686.316-1.579-.316-3.08-.711-4.58"
           class="s" />
        <path
           id="path187"
           transform="translate(-39.655 -24.698)"
           d="M191.511,143.15c7.265,4.817,21.321,1.106,17.373-8.371a27.637,27.637,0,0,1-1.421-3.475,20.926,20.926,0,0,1-.395-6.081c.079-2.369.079-4.738.237-7.107a31.982,31.982,0,0,0-7.581-.632c-2.29.079-4.659-.158-6.949,0l-.553.158a.632.632,0,0,0-.158.474c-.316,3.159,0,6.4-.237,9.634a15.4,15.4,0,0,1-1.185,5.528c-1.264,2.527-3.159,4.9-1.342,7.739a7.976,7.976,0,0,0,2.29,2.29"
           class="q" />
        <path
           id="path189"
           transform="translate(-40.444 -24.676)"
           d="M208.173,130.81a22.9,22.9,0,0,1-.237-5.686c.079-2.369.079-4.738.237-7.107a32.061,32.061,0,0,0-7.581-.632c-2.29.079-4.659-.158-6.949,0l-.553.158a.632.632,0,0,0-.158.474c-.316,3.159,0,6.4-.237,9.634a20.687,20.687,0,0,1-.395,2.764l1.106.79a13.188,13.188,0,0,0,10.187,1.658,15.793,15.793,0,0,0,4.659-1.974"
           class="t" />
        <path
           id="path191"
           transform="translate(-31.905 -40.886)"
           d="M152.332,194.558l-.632,1.579h78.731l-.79-1.737Z"
           class="u" />
        <path
           id="path193"
           transform="translate(-42.232 -58.283)"
           d="M200.8,289.344c2.922.711,6.081.948,8.844,1.421l3.712.553a56.781,56.781,0,0,0,6,.237H223.7a3.712,3.712,0,0,0,4.106-2.527,54.482,54.482,0,0,0,2.764-4.9c.474-1.106,1.027-2.211.316-3.4a5.766,5.766,0,0,0-1.342-1.5,10.581,10.581,0,0,0-2.053-1.421c-2.527-1.264-5.054-.553-7.581.158a59.069,59.069,0,0,1-8.134,1.737,55.12,55.12,0,0,1-9-.079"
           class="v" />
        <path
           id="path195"
           transform="translate(-43.577 -58.171)"
           d="M212.49,292.391h-1.342a5.331,5.331,0,0,1-3.317-.79l-.316-.395a1.027,1.027,0,0,1,.316-1.185,2.685,2.685,0,0,1,1.185-.474c-.474.079-1.342-1.737-1.421-2.053a9.4,9.4,0,0,1-.395-3,4.343,4.343,0,0,1,.79-2.527c.316-.395,1.342-1.5,1.9-1.421a1.027,1.027,0,0,1-.632-1.185,1.579,1.579,0,0,1,1.027-1.027,4.58,4.58,0,0,1,1.5-.237,38.43,38.43,0,0,0,7.976-.711,24.481,24.481,0,0,1,6.87-.79,15.951,15.951,0,0,1,5.212,1.106l1.342.632c5.528,3.554,1.9,10.424-2.685,12.872s-6.949,1.579-10.582,1.421l-7.344-.237"
           class="w" />
        <path
           id="path197"
           transform="translate(-32.05 -40.717)"
           d="M225.206,245.8H157.294l-4.9-50.54a1.5,1.5,0,0,1,1.5-1.658h74.625a1.5,1.5,0,0,1,1.5,1.658Z"
           class="u" />
        <path
           id="path199"
           transform="translate(-31.884 -41.096)"
           d="M225.514,247.6H156.574l-4.975-50.54a1.579,1.579,0,0,1,1.5-1.658h75.81a1.579,1.579,0,0,1,1.5,1.658Z"
           class="x" />
        <rect
           id="rect201"
           transform="translate(124.691 206.502)"
           height="3.072"
           width="68.939"
           class="u" />
        <path
           id="path203"
           transform="translate(-41.096 -46.754)"
           d="M205.034,227.117a4.817,4.817,0,1,1-4.817-4.817,4.817,4.817,0,0,1,4.817,4.817"
           class="u" />
        <path
           id="path205"
           transform="translate(-21.983 -49.081)"
           d="M165.074,261.663c4.106,2.369,8.213,4.817,12.4,6.949l.237.158,5.37,2.448a32.542,32.542,0,0,1,3.317,1.816l1.421,1.027a2.528,2.528,0,0,1,.632.553,1.264,1.264,0,0,1,0,.948,2.606,2.606,0,0,1-.474.79,9.318,9.318,0,0,1-3,2.053l-2.053.948a12.4,12.4,0,0,1-2.053.711,3.476,3.476,0,0,1-1.027-.079l-1.106-.158-2.211-.395c-3.317-.632-6.554-1.579-9.871-2.527l-9.634-2.922c-15.241-4.422-31.113-9.318-44.38-18.242-3.08-2.053-6.16-5.133-7.423-8.608-3.4-9.239,6.4-16.346,14.688-12.872,13.977,5.765,25.428,16.188,38.615,23.611l6.633,3.79"
           class="q" />
        <path
           id="path207"
           transform="translate(-40.02 -57.501)"
           d="M209.565,273.4l-6.633,3.633c-2.29,1.185-15.715,5.844-12,10.661.711.948,2.053,1.027,3.317,1.106,6.87.079,13.5-1.658,20.137-3.633"
           class="q" />
        <path
           id="path209"
           transform="translate(-33.139 -57.943)"
           d="M188.628,277.474l-3.712-1.974a41.46,41.46,0,0,1-6.475,1.106c-4.659.316-9.4-.632-14.056-.316a25.507,25.507,0,0,0-3.554.474c-1.342.316-2.922.948-3.238,2.29a1.974,1.974,0,0,0,0,.632l10.582,3.159c4.738,1.342,9.555,3,14.451,4.264h.079c2.606-.948,5.607-1.816,8.371-3a17.611,17.611,0,0,0,4.975-3.08c-3-1.658-6.317-2.922-7.344-3.475"
           class="t" />
        <path
           id="path211"
           transform="translate(-21.899 -49.059)"
           d="M170.912,279.094c-3.08-.948-12.24-4.027-15.241-4.9-15.241-4.422-30.166-9.634-43.433-18.558-3.08-2.053-6.16-5.133-7.423-8.608-3.4-9.239,6.4-16.346,14.688-12.872,13.977,5.765,24.8,13.9,37.9,21.321,2.211,1.264,6.081,3.79,8.292,5.054s8.371,4.343,10.345,5.449"
           class="p" />
        <path
           id="path213"
           transform="translate(-34.275 -58.283)"
           d="M193.4,289.344c-2.922.711-6.081.948-8.844,1.421l-3.712.553a56.782,56.782,0,0,1-6,.237H170.5a3.711,3.711,0,0,1-4.106-2.527,54.717,54.717,0,0,1-2.764-4.9c-.474-1.106-1.027-2.211-.316-3.4a5.766,5.766,0,0,1,1.342-1.5,10.5,10.5,0,0,1,2.053-1.421c2.527-1.264,5.054-.553,7.581.158a59.069,59.069,0,0,0,8.134,1.737,55.113,55.113,0,0,0,9-.079"
           class="v" />
        <path
           id="path215"
           transform="translate(-41.853 -58.886)"
           d="M199,280.234c2.369-.158,6.081-.711,8.213.632.869.553,2.211,1.9,2.29,3s-1.342,2.764-2.369,3.475a16.583,16.583,0,0,1-6.16,2.606"
           class="q" />
        <path
           id="path217"
           transform="translate(-33.37 -58.171)"
           d="M182.146,292.391h1.342a5.331,5.331,0,0,0,3.317-.79l.316-.395a1.027,1.027,0,0,0-.316-1.185,2.685,2.685,0,0,0-1.185-.474c.474.079,1.342-1.737,1.421-2.053a9.4,9.4,0,0,0,.395-3,4.343,4.343,0,0,0-.79-2.527c-.316-.395-1.342-1.5-1.9-1.421a1.027,1.027,0,0,0,.632-1.185,1.579,1.579,0,0,0-1.027-1.027,4.58,4.58,0,0,0-1.5-.237,38.431,38.431,0,0,1-7.976-.711,24.481,24.481,0,0,0-6.87-.79A15.951,15.951,0,0,0,162.8,277.7l-1.342.632c-5.528,3.554-1.9,10.424,2.685,12.872s6.949,1.579,10.582,1.421l7.344-.237"
           class="w" />
        <path
           id="path219"
           transform="translate(-37.012 -14.719)"
           d="M209.242,110.507c-2.211,2.685-5.291,4.422-8.292,6a9.95,9.95,0,0,1-2.369.948c-2.527.553-5.054-.79-7.186-2.29a41.537,41.537,0,0,1-7.818-7.344c-2.29-2.764-3.554-5.844-5.054-9.081a19.584,19.584,0,0,1-1.5-10.187c.316-3.712-1.737-7.028-.79-10.74a10.661,10.661,0,0,1,4.027-6,7.739,7.739,0,0,1,3.633-1.5c3-.316,5.528,1.737,8.45,1.816s5.844-.948,8.686-1.579,5.212-.869,7.739,0,4.106,3.08,5.607,5.528,3.238,3.633,4.817,5.528a10.187,10.187,0,0,1,2.132,8.844,27.481,27.481,0,0,1-3,7.976,65.056,65.056,0,0,1-3.948,6.317,35.536,35.536,0,0,1-3.554,3.948c-.553.553-1.027,1.263-1.5,1.816"
           class="p" />
        <path
           id="path221"
           transform="translate(-38.656 -17.388)"
           d="M213.571,100.541a27.718,27.718,0,0,0-1.264-8.292c-3.475-10.266-16.346-12.714-24.006-5.212s-5.054,28.034,4.106,34.9a10.187,10.187,0,0,0,8.686,1.658c8.923-2.448,12.635-13.5,12.477-22.98"
           class="q" />
        <path
           id="path223"
           transform="translate(-38.382 -17.397)"
           d="M215.429,92.259c-3.869-10.266-18.479-12.635-27.086-5.212a19.19,19.19,0,0,0-5.133,7.028c-1.027,2.685-.711,5.686-.474,8.529a11.056,11.056,0,0,1,2.843-6.238A20.774,20.774,0,0,1,188.106,94c.316-.237,2.764-2.527,2.527-2.843A8.134,8.134,0,0,0,193.713,94a28.823,28.823,0,0,0,5.212,1.5c3.159.711,5.607,1.579,7.9,3.948a21.4,21.4,0,0,1,4.659,7.739c.316.869.869,2.29,2.053,1.9a21.953,21.953,0,0,0,2.685-2.053,31.427,31.427,0,0,0,.553-6.554,24.88,24.88,0,0,0-1.423-8.295"
           class="t" />
        <path
           id="path225"
           transform="translate(-38.037 -16.494)"
           d="M208.134,97.594a19.743,19.743,0,0,1,1.737,4.185,70.045,70.045,0,0,0,2.29,6.87c3.238-1.974,5.449-6.633,6.949-10.029s1.658-5.37.553-8.529a14.057,14.057,0,0,0-3.79-5.37,25.38,25.38,0,0,0-18.715-6.238c-2.448.158-4.422,1.027-6.633,1.658s-3.712,1.027-5.212,2.685a15.873,15.873,0,0,0-2.922,5.37,23.691,23.691,0,0,0-1.5,9.713c.158,2.132.158,4.264,2.29,5.37v-3.79a6.87,6.87,0,0,1,.553-3.4,12.477,12.477,0,0,1,2.132-4.106c1.421-1.658,3.238-3.159,3.633-5.37a30.087,30.087,0,0,0,11.529,6.712c2.764.948,5.528,1.5,7.186,4.106h0"
           class="p" />
        <path
           id="path227"
           transform="translate(-45.825 -22.072)"
           d="M220.819,105.463c3.948-2.211,5.212,3.238,4.58,6a8.686,8.686,0,0,1-1.421,3.159c-.948,1.263-3.633,3.317-5.133,1.974s-.79-1.658-.79-2.606c-.079-2.527.158-7.107,2.843-8.529"
           class="q" />
        <path
           id="path229"
           transform="translate(-37.774 -22.072)"
           d="M184.339,105.463c-3.948-2.211-5.212,3.238-4.58,6a8.687,8.687,0,0,0,1.421,3.159c.948,1.263,3.633,3.317,5.133,1.974s.79-1.658.79-2.606c.079-2.527-.158-7.107-2.843-8.529"
           class="q" />
        <path
           id="path231"
           transform="translate(-36.53 -14.425)"
           d="M217.289,97.815l-.395-.237.237-.316c2.211-3.238,6.238-9.16,4.185-13.188A9.324,9.324,0,0,0,218.078,81,11.53,11.53,0,0,1,215,78.389a11.925,11.925,0,0,1-1.421-2.922,18.8,18.8,0,0,0-.79-1.9c-1.737-3.554-5.686-5.291-9.95-4.422a23.767,23.767,0,0,0-4.264,1.5c-2.764,1.185-5.528,2.369-8.371,1.579a11.845,11.845,0,0,1-2.764-1.263,12.082,12.082,0,0,0-2.685-1.263,7.739,7.739,0,0,0-6,.869,9.318,9.318,0,0,0-4.5,6.949,11.371,11.371,0,0,0,1.421,7.107l.474.79a7.5,7.5,0,0,1,1.5,3.712h-.474a7.186,7.186,0,0,0-1.421-3.475l-.474-.79a11.845,11.845,0,0,1-1.5-7.344,9.792,9.792,0,0,1,4.738-7.265,8.213,8.213,0,0,1,6.4-.869,12.4,12.4,0,0,1,2.764,1.342,11.372,11.372,0,0,0,2.606,1.263c2.685.711,5.37-.474,8.055-1.579a24.558,24.558,0,0,1,4.343-1.579c4.5-.948,8.608.869,10.424,4.659a19.112,19.112,0,0,1,.79,1.974,11.372,11.372,0,0,0,1.342,2.843,11.134,11.134,0,0,0,2.922,2.527,9.476,9.476,0,0,1,3.4,3.238c2.211,4.264-1.816,10.108-4.185,13.661Z"
           class="p" />
        <path
           id="path233"
           transform="translate(-40.192 -16.068)"
           d="M191.1,78.058a33.231,33.231,0,0,0,9.634-1.185,32.615,32.615,0,0,1,4.9-.474h2.448a15.557,15.557,0,0,1,2.448.237,6.949,6.949,0,0,1,4.264,2.606,4.738,4.738,0,0,1,.711,2.448,16.819,16.819,0,0,0,.237,2.369,5.054,5.054,0,0,0,1.027,2.132,13.5,13.5,0,0,1,1.421,2.053,6.238,6.238,0,0,1,.553,2.369,17.061,17.061,0,0,1-.079,2.448,21.247,21.247,0,0,0-.079-2.448,6,6,0,0,0-.632-2.29,13.664,13.664,0,0,0-1.421-1.974,5.37,5.37,0,0,1-1.185-2.211,13.976,13.976,0,0,1-.237-2.448,4.264,4.264,0,0,0-.632-2.211,4.422,4.422,0,0,0-.79-.869l-.948-.711a7.028,7.028,0,0,0-2.211-.79,14.925,14.925,0,0,0-2.369-.237h-2.448a38.617,38.617,0,0,0-4.817.395c-1.579.237-3.238.553-4.817.79a21.637,21.637,0,0,1-4.9,0"
           class="y" />
        <path
           id="path235"
           transform="translate(-43.662 -49.059)"
           d="M212.733,279.094c3.08-.948,12.24-4.027,15.241-4.9,15.241-4.422,30.166-9.634,43.433-18.558,3.08-2.053,6.16-5.133,7.423-8.608,3.4-9.239-6.4-16.346-14.688-12.872-13.977,5.765-24.8,13.9-37.9,21.321-2.211,1.264-6.081,3.79-8.292,5.054s-8.371,4.343-10.345,5.449"
           class="p" />
      </g>
    </g>
  </g>
</svg>
